<svg width="661" height="264" viewBox="0 0 661 264" fill="none" xmlns="http://www.w3.org/2000/svg">
<g clip-path="url(#clip0)">
<path d="M28.7673 256.233H34.58L39.09 244.719L30.1484 245.811L28.7673 256.233Z" fill="#FFB68F"/>
<path d="M36.0311 252.406C35.5859 252.843 33.8874 250.51 33.2196 250.279C32.8856 250.164 30.4369 249.916 29.1754 250.667C28.1613 251.269 27.5388 252.782 27.3574 252.839C26.7596 253.025 25.6754 253.754 24.7272 254.451C24.0223 254.764 23.4039 255.247 22.9257 255.84L22.9175 255.849V255.853C22.262 256.677 21.8662 257.716 21.8662 258.85V262.185H33.9534V262.14C35.6848 262.135 36.9875 262.131 37.1401 262.135C37.9604 259.39 39.1518 256.22 36.0311 252.406Z" fill="#CCD0FC"/>
<path d="M66.9746 144.48L55.4811 207.344L41.1637 246.272L28.7673 246.417L42.2974 202.203L48.1142 140.914L66.9746 144.48Z" fill="#FF4C00"/>
<path d="M102.7 256.232H96.8833L94.4056 246.623L101.315 245.811L102.7 256.232Z" fill="#FFB68F"/>
<path d="M110.195 255.845C110.195 255.841 110.187 255.837 110.187 255.837C109.708 255.239 109.094 254.761 108.385 254.447C107.437 253.751 106.353 253.021 105.755 252.835C105.573 252.778 104.947 251.265 103.937 250.663C102.675 249.913 100.227 250.16 99.8927 250.275C99.2248 250.506 97.5264 252.84 97.0811 252.403C93.9604 256.216 95.1518 259.386 95.9681 262.128C96.1206 262.123 97.4233 262.128 99.1548 262.132V262.177H111.242V258.842C111.246 257.708 110.85 256.669 110.195 255.845Z" fill="#CCD0FC"/>
<path d="M105.363 247.229L92.703 246.425L86.3132 199.288L64.4928 144.48L83.3532 140.914L97.2666 195.347L105.363 247.229Z" fill="#FF4C00"/>
<path d="M88.8898 162.573L49.285 159.469C46.0653 159.469 46.8981 141.779 46.8981 141.779C46.8981 138.56 51.2022 125.627 51.2022 125.627H80.7836C84.0033 125.627 85.5588 137.69 85.5588 140.905C85.5588 140.91 84.6189 147.778 88.8898 162.573Z" fill="#FF4C00"/>
<path d="M47.5287 203.53C48.9139 201.923 50.6783 201.556 51.4739 202.186C52.2283 202.784 52.1747 204.318 51.5646 205.237C50.5093 206.824 47.4463 207.096 45.6447 205.596C44.0081 204.231 43.8226 201.745 44.6594 200.125C45.9745 197.569 49.7631 197.309 52.1912 198.15C54.706 199.02 57.365 201.63 56.9445 204.516C56.3921 208.3 51.0246 209.269 50.4887 209.36C50.0599 209.43 45.6653 210.081 42.5075 206.758C39.9474 204.066 40.0546 200.723 40.0876 200.121" stroke="#CCD0FC" stroke-width="0.752143" stroke-miterlimit="10"/>
<path d="M91.1406 193.36C92.5258 191.753 94.2902 191.386 95.0859 192.016C95.8403 192.614 95.7867 194.148 95.1766 195.067C94.1212 196.654 91.0582 196.926 89.2566 195.426C87.62 194.061 87.4345 191.575 88.2714 189.955C89.5865 187.399 93.375 187.14 95.8032 187.981C98.3179 188.85 100.977 191.46 100.556 194.346C100.004 198.13 94.6365 199.099 94.1006 199.19C93.6718 199.26 89.2773 199.911 86.1194 196.588C83.5594 193.896 83.6666 190.553 83.6995 189.951" stroke="#CCD0FC" stroke-width="0.752143" stroke-miterlimit="10"/>
<path opacity="0.2" d="M16.7735 185.86C36.8673 179.14 59.2227 167.147 81.6674 149.436" stroke="#0014F2" stroke-width="16.7869" stroke-miterlimit="10"/>
<path d="M35.8195 31.7436C35.8276 31.7436 35.8357 31.7436 35.8439 31.7436C38.8687 31.7477 41.7717 32.239 44.6829 32.982C47.2286 33.6397 49.7906 34.4964 52.4622 35.5034C57.1314 37.2614 62.1498 39.4702 67.8218 41.9509C76.3239 45.666 86.2916 49.9982 98.3909 54.3182C110.486 58.6383 124.705 62.9461 141.628 66.5556C149.598 68.2568 157.142 69.5683 164.137 70.8148C169.383 71.7527 174.32 72.65 178.925 73.665C182.38 74.4283 185.648 75.2607 188.738 76.2595C191.056 77.0106 193.281 77.8551 195.409 78.858C197.005 79.6132 198.548 80.4618 200.021 81.4403C202.23 82.906 204.301 84.6843 206.047 86.8525C207.797 89.0084 209.189 91.5542 210.062 94.2988V94.2948C210.493 95.6347 210.769 96.9704 210.943 98.29C211.118 99.6096 211.191 100.921 211.191 102.224C211.187 105.667 210.687 109.09 209.892 112.501C208.69 117.608 206.806 122.663 204.496 127.259C203.339 129.557 202.068 131.738 200.679 133.756C199.282 135.774 197.78 137.633 196.018 139.302C194.504 140.731 192.924 141.969 191.3 143.017C188.864 144.588 186.318 145.713 183.801 146.419C181.288 147.13 178.819 147.422 176.509 147.422C176.505 147.422 176.501 147.422 176.497 147.422C174.333 147.422 172.302 147.171 170.451 146.781C167.674 146.196 165.282 145.311 163.321 144.434C162.343 143.995 161.466 143.557 160.715 143.159C159.964 142.761 159.326 142.396 158.851 142.124L167.763 126.642C168.307 126.959 168.9 127.288 169.566 127.629C170.565 128.136 171.722 128.636 172.92 128.993C174.113 129.35 175.331 129.562 176.484 129.562C176.489 129.562 176.489 129.562 176.493 129.562C177.045 129.562 177.585 129.517 178.129 129.419C178.945 129.269 179.769 129.009 180.683 128.546C181.596 128.075 182.611 127.393 183.744 126.326C184.114 125.976 184.605 125.44 185.137 124.758C186.071 123.561 187.122 121.92 188.113 120.049C189.603 117.243 190.963 113.91 191.893 110.698C192.36 109.094 192.725 107.523 192.965 106.073C193.204 104.628 193.318 103.308 193.318 102.237C193.318 101.619 193.281 101.083 193.225 100.665C193.168 100.243 193.095 99.9384 193.038 99.7639V99.7598C192.924 99.4066 192.794 99.1142 192.64 98.8341C192.348 98.3144 191.966 97.819 191.304 97.2344C190.728 96.7268 189.936 96.1706 188.884 95.5981C187.049 94.5912 184.426 93.5761 181.15 92.6464C178.693 91.9439 175.875 91.2821 172.761 90.6366C168.088 89.6662 162.745 88.7323 156.886 87.6889C151.027 86.6454 144.653 85.4842 137.888 84.0428C122.423 80.746 109.033 76.8685 97.4246 72.922C88.7155 69.9581 81.0093 66.9576 74.1923 64.1317C69.0805 62.0163 64.4641 59.9984 60.3105 58.1835C54.0903 55.4592 48.8892 53.1976 44.7356 51.7157C42.665 50.9727 40.8582 50.4286 39.364 50.0916C37.878 49.7546 36.7046 49.6247 35.856 49.6247C35.8479 49.6247 35.8438 49.6247 35.8357 49.6247C35.0359 49.6287 34.5365 49.7221 34.1426 49.848C33.7488 49.982 33.428 50.1363 32.9571 50.4976C32.815 50.6113 32.6972 50.729 32.5226 50.9889C32.3927 51.1838 32.2425 51.468 32.0882 51.8618C31.8568 52.4546 31.6253 53.3032 31.467 54.3913C31.3086 55.4754 31.2193 56.7868 31.2193 58.2647C31.2152 61.2936 31.5969 65.0046 32.2222 68.9999C32.6891 72.0003 33.29 75.1673 33.9356 78.387C34.9019 83.2186 35.9657 88.1558 36.8142 92.9306C37.2365 95.318 37.61 97.6688 37.878 99.975C38.146 102.281 38.3206 104.535 38.3206 106.772C38.3206 108.254 38.2434 109.728 38.0485 111.222C37.8983 112.342 37.6791 113.471 37.3542 114.62C36.863 116.338 36.124 118.112 34.9506 119.817C34.3659 120.666 33.6757 121.49 32.8759 122.241C32.0801 122.992 31.1828 123.67 30.2164 124.231C29.0593 124.909 27.7966 125.428 26.5176 125.757C25.2427 126.086 23.9638 126.232 22.7457 126.232C22.7416 126.232 22.7416 126.232 22.7376 126.232C21.0201 126.232 19.4367 125.956 17.9872 125.554C16.627 125.172 15.3805 124.677 14.195 124.117C11.974 123.061 9.9602 121.782 7.97071 120.373C6.23701 119.139 4.53579 117.803 2.83052 116.407C-0.149656 113.962 -3.14201 111.331 -6.1506 108.777C-8.404 106.861 -10.6615 104.989 -12.8783 103.288C-14.543 102.009 -16.1874 100.828 -17.783 99.7923C-20.1704 98.2372 -22.4522 97.0192 -24.462 96.2437C-25.469 95.8539 -26.4028 95.5778 -27.2554 95.3992C-28.1081 95.2205 -28.8795 95.1393 -29.5779 95.1393C-30.3493 95.1393 -31.0395 95.2327 -31.7338 95.4195C-32.6555 95.6712 -33.7192 96.1503 -34.9089 96.9664C-35.9483 97.6729 -37.073 98.6351 -38.2179 99.8491C-40.2277 101.964 -42.2862 104.847 -44.1661 108.282C-46.996 113.43 -49.42 119.801 -51.0928 126.569C-52.7696 133.337 -53.6953 140.516 -53.6953 147.28C-53.6994 153.285 -52.9605 158.957 -51.515 163.724C-50.7964 166.107 -49.9031 168.267 -48.8718 170.151C-47.8365 172.039 -46.6672 173.651 -45.3679 175.003C-44.158 176.262 -42.7329 177.407 -41.0601 178.434C-38.5509 179.969 -35.4611 181.235 -31.7907 182.112C-28.1243 182.989 -23.8814 183.473 -19.1594 183.473C-19.1432 183.473 -19.1269 183.473 -19.1148 183.473C-9.72356 183.473 1.55156 181.544 13.927 177.403L19.5909 194.346C5.697 198.987 -7.36055 201.329 -19.1594 201.337C-27.0606 201.333 -34.4135 200.282 -41.0479 198.016C-44.361 196.883 -47.4914 195.446 -50.3863 193.676C-53.2771 191.906 -55.9325 189.807 -58.263 187.379C-60.7641 184.776 -62.8389 181.853 -64.5441 178.738C-67.1021 174.065 -68.8358 168.966 -69.9523 163.671C-71.0648 158.369 -71.5642 152.859 -71.5642 147.284C-71.5642 139.996 -70.7116 132.599 -69.1728 125.453C-68.0156 120.093 -66.4687 114.876 -64.5685 109.947C-63.1434 106.252 -61.5153 102.724 -59.6841 99.4187C-58.3118 96.942 -56.8257 94.5912 -55.2098 92.3946C-52.7859 89.1059 -50.0818 86.1501 -46.992 83.6937C-45.4451 82.4675 -43.8007 81.3631 -42.0426 80.4293C-40.2886 79.4954 -38.4169 78.7321 -36.4517 78.1921C-34.1699 77.5668 -31.8516 77.2786 -29.5982 77.2786C-29.59 77.2786 -29.586 77.2786 -29.5779 77.2786C-25.9521 77.2786 -22.5131 78.0013 -19.3218 79.1057C-16.5244 80.076 -13.8934 81.3428 -11.3801 82.7761C-6.99106 85.2852 -2.94308 88.306 0.861315 91.3755C3.71156 93.6776 6.41566 96.0163 8.95733 98.1966C10.8616 99.8329 12.6683 101.38 14.3493 102.748C15.6079 103.775 16.7935 104.705 17.8775 105.493C18.6896 106.086 19.4448 106.597 20.1147 107.015C20.2284 107.088 20.3421 107.153 20.4517 107.222C20.4558 107.08 20.4558 106.93 20.4558 106.78C20.4558 105.631 20.3705 104.23 20.204 102.659C19.9076 99.906 19.3595 96.6375 18.6774 93.1092C17.6583 87.8107 16.359 81.9356 15.2912 76.0077C14.7553 73.0397 14.2802 70.0555 13.9311 67.0916C13.5819 64.1276 13.3586 61.184 13.3586 58.2688C13.3586 56.3402 13.456 54.4197 13.6996 52.5074C13.8823 51.0742 14.1462 49.6409 14.5279 48.2158C15.0963 46.0801 15.9246 43.9445 17.1467 41.9063C18.3607 39.8721 19.9929 37.9517 22.0027 36.3966C23.9922 34.8416 26.2659 33.6235 28.6492 32.8561C31.0163 32.0685 33.4605 31.7436 35.8195 31.7436Z" fill="#CCD0FC"/>
<path d="M151.234 123.747C151.933 122.464 159.379 125.728 159.83 124.137C160.053 123.349 154.88 117.271 151.243 114.973C147.548 112.634 140.085 113.491 140.085 113.491C140.085 113.491 137.194 115.874 138.075 116.966C140.093 119.468 147.398 122.176 151.234 123.747Z" fill="#FFB68F"/>
<path d="M158.303 127.933L159.684 124.875C159.846 124.518 159.688 124.1 159.33 123.937L145.745 117.807C145.388 117.644 144.969 117.802 144.807 118.16L143.427 121.217C143.264 121.574 143.422 121.993 143.78 122.155L157.365 128.286C157.722 128.444 158.141 128.286 158.303 127.933Z" fill="black"/>
<path d="M151.904 136.39C153.89 137.288 156.224 136.402 157.122 134.417L161.823 123.999C162.721 122.013 161.835 119.679 159.85 118.781C157.865 117.884 155.53 118.769 154.633 120.754L149.931 131.173C149.038 133.158 149.919 135.493 151.904 136.39Z" fill="#FF4C00"/>
<path d="M154.247 131.201C154.693 131.404 155.221 131.205 155.424 130.755L157.292 126.613C157.495 126.167 157.296 125.639 156.845 125.436C156.399 125.233 155.871 125.432 155.668 125.882L153.8 130.024C153.601 130.47 153.8 130.998 154.247 131.201Z" fill="#EDEDED"/>
<path d="M132.956 119.168C132.956 119.168 137.901 126.208 144.393 126.752C149.205 127.154 149.724 125.871 148.356 124.584C144.162 120.645 145.855 120.3 145.855 120.3C147.284 118.835 149.322 118.912 152.014 120.637L149.022 116.553C149.026 116.557 132.184 114.827 132.956 119.168Z" fill="#FFB68F"/>
<path d="M107.701 103.901L136.463 120.596C139.33 120.068 145.339 114.299 142.472 114.827L108.517 93.0152L81.6753 80.5992C78.9184 79.6532 77.274 84.7528 76.324 87.5056C75.3739 90.2624 76.8396 93.267 79.5965 94.213L107.701 103.901Z" fill="#FFB68F"/>
<path d="M78.8333 41.882C78.8333 41.882 85.2727 87.421 82.6133 88.3143C79.9539 89.2075 65.3291 84.786 65.3291 84.786L54.9228 59.5316L65.7716 40.2052L78.8333 41.882Z" fill="black"/>
<path d="M48.1788 80.0478C53.457 75.3908 60.201 73.4663 66.8029 74.5179C66.8962 74.5341 66.949 74.5422 66.949 74.5422C68.0331 74.5788 70.8752 75.9714 71.8781 76.4627C80.6927 80.7827 82.9177 84.1486 82.9177 84.1486C82.9177 84.1486 84.1986 122.629 78.9611 126.993C73.7237 131.357 48.1788 126.993 48.1788 126.993C48.1788 126.993 43.1848 99.9224 43.1848 95.3953C43.1807 90.3851 41.6541 85.8052 48.1788 80.0478Z" fill="#EDEDED"/>
<path d="M43.9401 87.1084L50.5095 124.945C62.6169 131.316 84.7084 136.74 84.7084 136.74" stroke="#FFB68F" stroke-width="9.91954" stroke-miterlimit="10" stroke-linecap="round"/>
<path d="M108.355 129.54L109.021 132.825C109.098 133.206 108.851 133.58 108.469 133.661L93.8605 136.621C93.4788 136.698 93.1053 136.451 93.0241 136.069L92.3582 132.784C92.2811 132.403 92.5287 132.029 92.9104 131.948L107.519 128.988C107.905 128.911 108.278 129.158 108.355 129.54Z" fill="black"/>
<path d="M103.998 119.874C106.134 119.439 108.213 120.82 108.647 122.955L110.917 134.157C111.351 136.293 109.971 138.372 107.835 138.806C105.699 139.241 103.621 137.86 103.186 135.725L100.916 124.523C100.482 122.387 101.862 120.308 103.998 119.874Z" fill="#FF4C00"/>
<path d="M105.131 125.451C105.614 125.354 106.081 125.667 106.178 126.146L107.08 130.6C107.177 131.083 106.865 131.55 106.386 131.647C105.902 131.745 105.435 131.432 105.338 130.953L104.437 126.499C104.335 126.02 104.648 125.553 105.131 125.451Z" fill="#EDEDED"/>
<path d="M82.3698 141.503C82.4347 141.771 91.968 149.932 95.6344 148.186C96.6454 147.703 98.306 142.883 99.0246 141.531C99.9179 139.846 109.289 142.94 108.94 140.804C108.383 137.365 94.2255 134.625 94.2255 134.625C94.2255 134.625 94.9807 132.526 94.2742 131.742C92.8004 130.114 88.0378 130.946 85.7844 131.641C83.5269 132.339 82.3698 141.503 82.3698 141.503Z" fill="#FFB68F"/>
<path d="M66.8027 74.5133C66.8027 74.5133 79.6613 77.794 84.4442 80.5995C89.2271 83.4051 96.576 85.8006 96.576 85.8006L90.0554 101.619L76.3239 94.2174L66.8027 74.5133Z" fill="#EDEDED"/>
<path d="M53.2461 101.623L39.7379 102.638C39.7379 102.638 36.1933 83.815 38.6294 82.191C41.0656 80.5669 51.687 77.4811 51.687 77.4811L53.2461 101.623Z" fill="#EDEDED"/>
<path d="M79.8888 46.7457C79.8888 46.7457 80.3273 36.644 78.2323 33.0629C76.1372 29.4818 61.6099 28.7104 57.8258 32.6975C57.8258 32.6975 52.174 32.7015 48.7432 40.5499C45.56 47.8298 44.6749 66.3117 60.2903 66.4457L79.8888 46.7457Z" fill="black"/>
<path d="M64.6143 67.7334C64.6143 67.7334 68.1183 70.1249 71.6344 68.2978C73.433 67.3639 76.198 62.7922 77.4364 57.4287C79.1173 50.1366 77.7368 44.4036 76.6284 43.9042C74.8541 43.1084 63.5546 38.5529 58.5728 47.4975C53.5909 56.442 55.2069 57.1526 55.2069 57.1526C55.2069 57.1526 53.9482 65.6587 55.7712 64.7492C55.7712 64.7492 56.2585 69.3209 56.9528 71.1764C57.3994 72.3661 57.3141 79.8896 61.285 80.4012C63.5221 80.6894 65.5563 81.0183 66.2303 78.5985C67.0423 75.6954 66.4414 71.8301 66.4414 71.8301L64.6143 67.7334Z" fill="#FFB68F"/>
<path d="M71.35 50.6322C71.48 54.1605 73.1568 58.2572 72.7102 58.6632C71.9347 59.3575 69.9046 59.2073 69.7382 59.1261" stroke="black" stroke-width="0.524972" stroke-miterlimit="10" stroke-linecap="round"/>
<path d="M63.2832 51.1271C65.5245 49.6329 66.7791 50.2623 66.7791 50.2623" stroke="black" stroke-width="0.829311" stroke-miterlimit="10" stroke-linecap="round"/>
<path d="M77.6477 50.5296C75.3578 50.0018 74.428 50.3347 74.428 50.3347" stroke="black" stroke-width="0.829311" stroke-miterlimit="10" stroke-linecap="round"/>
<path d="M75.8571 53.2782C75.9058 53.6843 73.7864 53.936 73.7377 53.53C73.6889 53.1199 74.1234 52.7342 74.7121 52.6652C75.2927 52.5961 75.8084 52.8682 75.8571 53.2782Z" fill="black"/>
<path d="M66.7137 53.477C66.7624 53.883 64.643 54.1347 64.5942 53.7287C64.5455 53.3186 64.9799 52.9329 65.5687 52.8639C66.1533 52.7949 66.6649 53.0669 66.7137 53.477Z" fill="black"/>
<path d="M70.7539 65.4152C69.9175 65.4883 68.3178 62.6868 68.2366 62.5934L72.8693 62.4676C72.382 64.1485 71.367 65.3625 70.7539 65.4152Z" fill="white"/>
<path d="M48.1621 73.5556C48.2758 74.6925 47.5165 88.7813 48.6574 88.8341C51.4102 88.964 57.2244 86.5563 59.9488 84.7008C62.2306 83.1498 61.309 59.6739 61.0491 56.3405C60.7933 53.0192 63.1848 45.8936 67.6916 46.3565C72.1984 46.8193 83.3436 48.7276 84.8377 44.3507C87.6149 36.2141 76.0921 32.9051 76.0921 32.9051C76.0921 32.9051 64.3135 34.1191 62.4133 34.5982C61.0897 34.9311 54.8005 39.3405 51.0935 41.9918C49.5588 43.088 49.1 47.3593 46.9319 51.3911L48.1621 73.5556Z" fill="black"/>
<g opacity="0.42">
<path opacity="0.42" d="M76.1327 142.424L87.1967 156.448C75.613 165.588 64.0171 173.282 52.6689 179.579C41.3207 185.876 30.2201 190.781 19.6028 194.33L13.9388 177.387C23.4153 174.22 33.5373 169.766 44.0004 163.956C54.4675 158.154 65.2717 150.995 76.1327 142.424Z" fill="#CCD0FC"/>
</g>
<path d="M232.194 209.316H237.487L238.379 202.01H232.194V209.316Z" fill="#EEB489"/>
<path d="M216.142 209.316H221.435L221.733 202.01H215.548L216.142 209.316Z" fill="#EEB489"/>
<path d="M237.839 206.436C237.839 206.436 248.375 209.976 254.744 211.095C256.461 211.397 255.915 214.317 255.915 214.317L231.788 213.696C231.394 213.688 231.067 213.442 231.022 213.115C230.861 211.948 230.614 208.786 231.695 207.697C231.912 207.478 232.425 207.672 232.901 207.807C233.43 207.958 234.321 210.177 237.546 207.973C237.848 207.767 237.487 206.724 237.839 206.436Z" fill="#D1D3D4"/>
<path d="M221.318 206.422C221.318 206.422 231.842 209.988 238.207 211.123C239.923 211.429 239.367 214.348 239.367 214.348L215.242 213.667C214.848 213.659 214.522 213.411 214.478 213.084C214.321 211.917 214.086 208.754 215.17 207.668C215.388 207.449 215.901 207.645 216.376 207.781C216.904 207.933 217.787 210.155 221.02 207.959C221.323 207.753 220.965 206.71 221.318 206.422Z" fill="#0E0F25"/>
<path d="M228.069 136.244H240.738V204.268H228.069V136.244Z" fill="#F26B6B"/>
<path d="M213.882 136.244H225.895V204.268H213.882V136.244Z" fill="#F26B6B"/>
<path d="M214.471 136.244H240.738V146.421H214.471V136.244Z" fill="#F26B6B"/>
<path d="M188.942 158.593C188.986 158.769 186.239 168.418 188.72 169.614C189.88 169.764 189.847 165.111 189.847 165.111C189.847 165.111 189.95 171.182 191.42 171.068C192.889 170.954 192.595 164.993 192.595 164.993C192.595 164.993 193.095 171.152 194.447 171.067C195.799 170.982 196.554 161.933 196.554 161.933C196.554 161.933 197.6 166.208 198.408 166.32C199.216 166.432 200.731 160.481 200.148 158.753C199.564 157.026 188.942 158.593 188.942 158.593Z" fill="#EEB489"/>
<path d="M217.461 72.925C217.461 72.925 205.134 71.7775 197.442 98.4246C189.75 125.072 184.33 162.107 184.33 162.107L203.441 160.983L215.659 93.7209C215.659 93.7209 220.287 78.3318 217.461 72.925Z" fill="#C9A685"/>
<path d="M278.914 82.9608L278.632 92.6142C278.999 93.2646 284.539 88.1004 285.633 86.7152C287.344 84.5489 287.159 80.9312 286.792 80.2807L281.887 82.2327C281.519 81.5823 281.531 77.2014 280.881 77.5688H280.881C280.055 77.4923 279.3 78.0425 279.127 78.854C278.809 80.3414 278.666 82.5224 278.914 82.9608Z" fill="#CEA28B"/>
<path d="M278.914 82.9609L278.632 92.6143C278.999 93.2647 284.539 88.1004 285.633 86.7153C287.344 84.549 287.159 80.9312 286.792 80.2808L281.887 82.2328C281.519 81.5823 278.666 82.5224 278.914 82.9609Z" fill="#EEB489"/>
<path d="M267.392 99.8145C267.392 99.8145 276.933 86.4659 277.403 86.1583C280.033 84.438 283.33 81.5714 283.595 81.4032C286.406 79.6164 284.221 87.7117 282.047 89.7128C281.168 90.5216 279.801 91.2912 278.938 92.6243C275.806 97.4669 273.549 104.889 273.331 104.815C270.074 103.699 267.392 99.8145 267.392 99.8145Z" fill="#EEB489"/>
<path d="M273.075 89.5596H273.075C273.689 90.1345 274.182 90.4492 274.729 89.8104L289.275 72.693C289.902 72.1118 289.497 71.6725 288.802 71.3975C288.306 71.2012 287.219 70.8759 286.672 71.5147L272.963 87.5221C272.449 88.1219 272.499 89.0197 273.075 89.5596Z" fill="#0095FF"/>
<path d="M273.784 90.0448C274.14 90.3985 274.893 90.1605 275.44 89.5217L289.149 73.5143C289.663 72.9145 289.805 72.1803 289.471 71.8482H289.471C289.115 71.4944 288.362 71.7324 287.815 72.3712L274.106 88.3786C273.592 88.9784 273.45 89.7126 273.784 90.0448Z" fill="#161F40"/>
<path d="M282.276 76.5856L284.713 82.158C285.023 82.8665 287.102 80.9889 286.792 80.2804L284.841 75.463C284.531 74.7544 283.706 74.4314 282.997 74.7414H282.997C282.289 75.0514 281.966 75.8771 282.276 76.5856Z" fill="#EEB489"/>
<path d="M280.375 80.2247L282.588 84.7584C282.915 85.4297 283.725 85.7083 284.396 85.3806H284.396C285.068 85.053 285.346 84.2431 285.019 83.5718L282.806 79.0382C282.478 78.3668 281.669 78.0882 280.997 78.4159L280.997 78.4159C280.326 78.7436 280.047 79.5534 280.375 80.2247Z" fill="#EEB489"/>
<path d="M278.707 83.4527L280.8 87.1567C281.145 87.768 281.921 87.9837 282.532 87.6383L282.674 87.5584C283.285 87.213 283.501 86.4375 283.155 85.8261L281.063 82.1221C280.718 81.5108 279.942 81.2952 279.331 81.6405L279.189 81.7205C278.578 82.0658 278.362 82.8414 278.707 83.4527Z" fill="#EEB489"/>
<path d="M277.953 85.8395L279.56 88.6839C279.825 89.1534 280.421 89.319 280.89 89.0538L280.999 88.9924C281.468 88.7272 281.634 88.1316 281.369 87.6621L279.762 84.8177C279.496 84.3482 278.901 84.1826 278.431 84.4478L278.323 84.5092C277.853 84.7744 277.688 85.37 277.953 85.8395Z" fill="#EEB489"/>
<path d="M275.619 92.723L264.172 109.419C264.25 109.803 244.296 86.5161 244.296 86.5161" stroke="#C9A685" stroke-width="17.6754" stroke-miterlimit="10"/>
<path d="M223.087 67.5086C222.553 67.5442 211.397 85.556 211.397 85.556L208.995 90.1545L211.397 138.153H248.122L246.105 90.6658C246.105 90.6658 245.505 83.2525 244.401 81.7972C240.156 76.2008 240.544 73.7271 233.739 67.903L223.087 67.5086Z" fill="#161F40"/>
<path d="M233.857 67.8383C233.857 67.8383 243.313 77.6863 238.384 84.229C233.454 90.7717 235.501 145.234 235.501 145.234H251.666L251.666 89.3923C251.666 89.3923 253.801 75.5628 233.857 67.8383Z" fill="#C9A685"/>
<path d="M223.499 67.5086C223.499 67.5086 214.599 77.6862 219.243 84.2289C223.886 90.7717 222.258 145.903 222.258 145.903H207.628L205.927 92.1966C205.927 92.1966 198.734 77.6862 223.499 67.5086Z" fill="#C9A685"/>
<path d="M224.684 63.3285H232.174V74.9147H224.684V63.3285Z" fill="#EEB489"/>
<path d="M235.298 71.5538C235.298 71.5538 234.107 75.7619 227.676 75.1267C221.245 74.4916 221.562 70.8392 221.562 70.8392" stroke="#0095FF" stroke-width="1.42365" stroke-miterlimit="10" stroke-linecap="round"/>
<path d="M232.174 65.0153L225.341 65.0854C225.341 65.0854 231.102 69.6131 232.174 68.8789V65.0153Z" fill="#161F40"/>
<path d="M228.939 65.7972H232.899C237.441 65.7972 241.123 62.1153 241.123 57.5734V47.002C241.123 42.4601 237.441 38.7781 232.899 38.7781H227.537C222.995 38.7781 219.314 42.4601 219.314 47.002V56.1717C219.314 61.4877 223.623 65.7972 228.939 65.7972Z" fill="#EEB489"/>
<path d="M219.32 55.6196C217.781 55.6196 216.534 54.2092 216.534 52.4694C216.534 50.7296 217.781 49.3192 219.32 49.3192C220.859 49.3192 222.107 50.7296 222.107 52.4694C222.107 54.2092 220.859 55.6196 219.32 55.6196Z" fill="#EEB489"/>
<path d="M246.554 37.8192C246.735 36.145 247.024 33.5519 245.282 32.3669C243.634 31.2456 241.056 31.8383 240.012 33.1847C239.08 34.3859 239.46 36.0682 239.194 36.0926C238.779 36.1308 239.028 31.9338 236.649 30.186C235.159 29.0912 232.681 28.9885 231.651 30.0951C229.938 31.9361 231.362 34.5822 230.975 34.7362C230.542 34.9085 230.083 30.3777 226.017 29.2773C223.453 28.5832 220.174 30.2281 220.02 31.8217C219.789 34.2052 226.495 37.0219 226.563 36.9105C226.622 36.8126 222.464 32.9877 218.839 33.9117C217.338 34.2942 215.97 35.4802 215.476 37.0013C214.688 39.4334 216.149 42.209 218.021 42.9988C219.131 43.4672 219.534 42.879 222.268 42.7411C224.579 42.6246 226.343 42.9412 228.266 43.2863C231.129 43.8002 231.376 44.2148 233.469 44.6345C235.929 45.1279 241.099 46.1648 244.199 43.2863C246.16 41.4648 246.441 38.8659 246.554 37.8192Z" fill="#161F40"/>
<path d="M226.676 42.5737C226.676 42.5737 222.406 48.4621 222.667 51.2364C222.929 54.0107 219.889 51.2364 219.889 51.2364C219.889 51.2364 219.777 49.3218 219.125 49.2726C218.472 49.2235 216.274 43.1227 219.313 42.5565C222.353 41.9903 226.676 42.5737 226.676 42.5737Z" fill="#161F40"/>
<path d="M242.889 49.6337L239.175 49.2726" stroke="#161F40" stroke-width="1.42365" stroke-miterlimit="10" stroke-linecap="round"/>
<path d="M228.255 50.2527L231.672 49.6337" stroke="#161F40" stroke-width="1.42365" stroke-miterlimit="10" stroke-linecap="round"/>
<path d="M236.393 50.8186C237.389 53.3265 237.721 55.1222 237.847 56.18C237.904 56.6617 237.954 57.2898 237.574 57.6339C236.919 58.2265 235.489 57.5236 235.348 57.4522" stroke="#161F40" stroke-width="0.474551" stroke-miterlimit="10" stroke-linecap="round"/>
<path d="M236.245 61.0676C235.714 61.8626 234.7 62.1658 233.863 61.8082C233.111 61.4866 232.639 60.6897 232.711 59.8398" stroke="#161F40" stroke-width="0.474551" stroke-miterlimit="10" stroke-linecap="round"/>
<path d="M240.417 52.8783C240.192 52.8783 240.009 52.6952 240.009 52.4694C240.009 52.2436 240.192 52.0605 240.417 52.0605C240.643 52.0605 240.826 52.2436 240.826 52.4694C240.826 52.6952 240.643 52.8783 240.417 52.8783Z" fill="#161F40"/>
<path d="M231.658 52.8783C231.432 52.8783 231.249 52.6952 231.249 52.4694C231.249 52.2436 231.432 52.0605 231.658 52.0605C231.884 52.0605 232.067 52.2436 232.067 52.4694C232.067 52.6952 231.884 52.8783 231.658 52.8783Z" fill="#161F40"/>
<path d="M246.964 76.1489C246.964 76.1489 254.965 86.7748 250.239 89.3192C245.514 91.8636 241.031 93.3176 242.727 100.224C244.423 107.13 246.726 111.976 243.212 114.4C239.698 116.823 238.85 125.183 238.85 125.183" stroke="#161F40" stroke-width="0.472713" stroke-miterlimit="10" stroke-linecap="round"/>
<path d="M209.724 74.4293C209.724 74.4293 201.724 85.0552 206.449 87.5996C211.175 90.144 215.658 91.5979 213.961 98.5042C212.265 105.41 209.963 110.257 213.477 112.68C216.99 115.103 217.839 123.463 217.839 123.463" stroke="#161F40" stroke-width="0.472713" stroke-miterlimit="10" stroke-linecap="round"/>
<path d="M280.214 67.5641C276.563 67.5641 273.604 64.6047 273.604 60.9542C273.604 57.3037 276.563 54.3444 280.214 54.3444C283.864 54.3444 286.823 57.3037 286.823 60.9542C286.823 64.6047 283.864 67.5641 280.214 67.5641Z" fill="#0095FF"/>
<path d="M283.856 65.0161L284.926 69.9225L279.661 65.798L283.856 65.0161Z" fill="#0095FF"/>
<path d="M283.388 62.056C282.779 62.056 282.286 61.5627 282.286 60.9542C282.286 60.3458 282.779 59.8525 283.388 59.8525C283.996 59.8525 284.49 60.3458 284.49 60.9542C284.49 61.5627 283.996 62.056 283.388 62.056Z" fill="white"/>
<path d="M280.214 62.056C279.605 62.056 279.112 61.5627 279.112 60.9542C279.112 60.3458 279.605 59.8525 280.214 59.8525C280.822 59.8525 281.315 60.3458 281.315 60.9542C281.315 61.5627 280.822 62.056 280.214 62.056Z" fill="#A7A9AC"/>
<path d="M277.04 62.056C276.431 62.056 275.938 61.5627 275.938 60.9542C275.938 60.3458 276.431 59.8525 277.04 59.8525C277.648 59.8525 278.141 60.3458 278.141 60.9542C278.141 61.5627 277.648 62.056 277.04 62.056Z" fill="white"/>
<path d="M450.769 162.195H404.565V211.593H450.769V162.195Z" fill="#E9E5E5"/>
<path d="M450.769 163.468V169.913C434.136 170.73 404.74 169.52 404.74 169.52C404.679 169.52 404.619 169.52 404.565 169.514V163.468H450.769V163.468Z" fill="black" fill-opacity="0.44"/>
<path d="M387.038 206.012H380.256L379.114 194.801H387.038V206.012Z" fill="#EEB489"/>
<path d="M407.531 143.347L451.926 145.056C456.793 145.056 460.257 151.749 459.655 157.211C459.221 161.155 455.38 164.26 454.533 164.673C442.938 170.32 404.74 165.929 404.74 165.929C399.243 165.929 394.798 161.453 394.835 155.956V155.956C394.883 148.978 400.553 143.347 407.531 143.347Z" fill="#5AA2E4"/>
<path d="M389.869 147.358H376.284V199.707H389.869V147.358Z" fill="#696969"/>
<path d="M376.283 150.54V142.457C376.283 139.418 378.747 136.955 381.785 136.955H423.409V142.59C423.409 146.981 419.85 150.54 415.459 150.54H376.283V150.54Z" fill="#696969"/>
<path d="M390.37 199.706H374.393L374.523 191.949L390.37 195.018V199.706Z" fill="#5AA2E4"/>
<path d="M378.443 143.698C379.635 142.313 381.153 142 381.839 142.54C382.49 143.053 382.441 144.375 381.916 145.165C381.008 146.531 378.371 146.765 376.822 145.473C375.414 144.299 375.255 142.159 375.973 140.765C377.106 138.566 380.364 138.341 382.456 139.067C384.62 139.817 386.911 142.06 386.547 144.547C386.071 147.806 381.453 148.638 380.99 148.715C380.622 148.776 376.84 149.337 374.12 146.477C371.919 144.161 372.011 141.282 372.036 140.765" stroke="#5AA2E4" stroke-width="0.604614" stroke-miterlimit="10" stroke-linecap="round"/>
<path d="M379.999 201.593C379.999 201.593 366.499 207.024 358.339 208.742C356.139 209.205 356.838 213.687 356.838 213.687L387.752 212.733C388.256 212.722 388.675 212.344 388.733 211.842C388.94 210.051 389.256 205.198 387.871 203.527C387.593 203.191 386.935 203.489 386.325 203.697C385.649 203.928 384.506 207.334 380.375 203.952C379.987 203.635 380.45 202.035 379.999 201.593Z" fill="#5AA2E4"/>
<path d="M418.385 147.358H404.8V199.707H418.385V147.358Z" fill="#454545"/>
<path d="M404.8 150.54V142.457C404.8 139.418 407.264 136.955 410.302 136.955L418.775 136.408L449.589 136.408C449.589 136.408 450.142 138.471 450.142 142.784C450.142 147.174 448.367 150.54 443.976 150.54H404.8Z" fill="#454545"/>
<path d="M415.49 206.012H408.707L408.325 194.801H416.25L415.49 206.012Z" fill="#EEB489"/>
<path d="M419.581 199.707H403.604L403.734 191.949L419.581 195.018V199.707Z" fill="#5AA2E4"/>
<path d="M409.851 143.698C408.658 142.313 407.14 142 406.455 142.54C405.804 143.053 405.853 144.375 406.377 145.165C407.285 146.531 409.922 146.765 411.472 145.473C412.88 144.299 413.039 142.159 412.321 140.765C411.188 138.566 407.929 138.341 405.837 139.067C403.674 139.817 401.383 142.06 401.746 144.547C402.223 147.806 406.841 148.638 407.304 148.715C407.672 148.776 411.454 149.337 414.173 146.477C416.375 144.161 416.283 141.282 416.257 140.765" stroke="#5AA2E4" stroke-width="0.604614" stroke-miterlimit="10" stroke-linecap="round"/>
<path d="M408.856 201.572C408.856 201.572 395.372 207.043 387.217 208.785C385.019 209.254 385.731 213.734 385.731 213.734L416.642 212.689C417.146 212.677 417.564 212.297 417.62 211.795C417.822 210.004 418.124 205.15 416.734 203.483C416.455 203.148 415.798 203.447 415.189 203.657C414.513 203.89 413.381 207.3 409.239 203.93C408.851 203.614 409.309 202.013 408.856 201.572Z" fill="#454545"/>
<path d="M443.348 45.7092C443.348 45.7092 444.74 50.2685 443.684 51.5896C442.628 52.9106 441.921 54.0384 441.921 54.0384V45.4212L443.348 45.7092Z" fill="#F2A600"/>
<path d="M452.355 144.405L452.953 119.759L449.225 101.503L457.575 99.197L459.675 116.96L456.976 145.04L452.355 144.405Z" fill="#EEB489"/>
<path d="M407.839 144.405L407.241 119.759L410.969 101.503L402.619 99.197L400.519 116.96L403.218 145.04L407.839 144.405Z" fill="#EEB489"/>
<path d="M446.952 105.058C438.573 93.2036 439.652 91.0798 439.442 90.8767C441.033 92.4133 439.442 72.4252 439.442 72.4252C440.334 72.6966 441.352 73.0793 442.415 73.5312C446.237 75.157 450.63 77.679 451.753 79.136C453.892 81.9099 459.54 95.2039 461.269 101.637L446.952 105.058Z" fill="#0E0F25"/>
<path d="M413.242 105.058C421.621 93.2036 420.542 91.0798 420.752 90.8767C419.161 92.4133 420.752 72.4252 420.752 72.4252C419.86 72.6966 418.842 73.0793 417.779 73.5312C413.957 75.157 409.564 77.679 408.441 79.136C406.302 81.9099 400.653 95.2039 398.925 101.637L413.242 105.058Z" fill="#0E0F25"/>
<path d="M424.814 70.8777C422.148 71.5545 414.69 75.1872 414.69 75.1872L411.449 85.1611L412.674 138.305H450.118L448.102 85.6901C448.102 85.6901 447.502 79.4938 446.398 78.2774C442.153 73.5997 439.883 71.9446 435.688 71.0938C431.494 70.2429 427.45 70.2087 424.814 70.8777Z" fill="#0E0F25"/>
<path d="M428.82 75.3972C429.806 75.6132 430.838 75.5265 431.793 75.2012C432.863 74.837 434.171 74.142 434.171 72.9198V65.0789H426.68V72.9198C426.68 74.4137 427.555 75.12 428.82 75.3972Z" fill="#EEB489"/>
<path d="M437.295 73.1398C437.295 73.1398 436.388 78.0428 429.957 77.4077C423.526 76.7725 423.559 72.4252 423.559 72.4252" stroke="#427BFF" stroke-width="1.50429" stroke-miterlimit="10" stroke-linecap="round"/>
<path d="M434.171 66.7657L427.337 66.8357C427.337 66.8357 433.098 71.3635 434.171 70.6293V66.7657Z" fill="#231F20"/>
<path d="M430.935 67.5476H434.895C437.077 67.5965 439.674 65.9951 441.847 61.677C442.264 60.849 442.504 59.9402 442.555 59.0146L443.119 48.7523C443.119 44.2104 439.437 40.5285 434.895 40.5285H429.534C424.992 40.5285 421.31 44.2104 421.31 48.7523V57.922C421.31 63.2381 425.619 67.5476 430.935 67.5476Z" fill="#EEB489"/>
<path d="M448.551 39.5695C448.732 37.8953 449.021 35.3023 447.278 34.1172C445.63 32.996 443.053 33.5887 442.008 34.9351C441.076 36.1363 441.456 37.8185 441.19 37.843C440.776 37.8811 441.024 33.6842 438.646 31.9363C437.156 30.8415 434.677 30.7389 433.648 31.8455C431.935 33.6865 433.359 36.3325 432.971 36.4865C432.538 36.6589 432.08 32.128 428.014 31.0276C425.449 30.3336 422.171 31.9784 422.016 33.572C421.785 35.9555 428.491 38.7722 428.559 38.6608C428.619 38.563 424.46 34.7381 420.835 35.6621C419.334 36.0446 417.966 37.2306 417.473 38.7517C416.684 41.1838 418.145 43.9593 420.017 44.7492C421.127 45.2176 421.531 44.6293 424.265 44.4915C426.575 44.3749 433.382 47.738 435.475 48.1577C437.935 48.651 443.095 47.9151 446.195 45.0367C448.157 43.2151 448.438 40.6163 448.551 39.5695Z" fill="#F2A600"/>
<path d="M426.351 44.5009C426.351 44.5009 422.002 51.2419 422.264 54.0162C422.389 55.3399 420.628 49.79 419.305 50.6127C418.556 48.5818 417.785 43.8373 420.127 43.4011C423.167 42.8349 426.351 44.5009 426.351 44.5009Z" fill="#F2A600"/>
<path d="M440.985 52.1061L437.271 51.7451" stroke="#231F20" stroke-width="1.42365" stroke-miterlimit="10" stroke-linecap="round"/>
<path d="M426.351 52.7251L429.768 52.1062" stroke="#231F20" stroke-width="1.42365" stroke-miterlimit="10" stroke-linecap="round"/>
<path d="M434.489 53.291C435.485 55.7989 435.817 57.5947 435.943 58.6525C436 59.1341 436.05 59.7622 435.67 60.1064C435.015 60.6989 433.585 59.996 433.444 59.9247" stroke="#231F20" stroke-width="0.474551" stroke-miterlimit="10" stroke-linecap="round"/>
<path d="M431.246 62.3658C431.22 63.4261 432.275 64.6527 433.008 64.7354C433.934 64.8398 435.49 63.6642 436.09 62.638L431.246 62.3658Z" fill="#F1F2F2"/>
<path d="M438.513 55.3508C438.739 55.3508 438.922 55.1677 438.922 54.9419C438.922 54.716 438.739 54.5329 438.513 54.5329C438.288 54.5329 438.104 54.716 438.104 54.9419C438.104 55.1677 438.288 55.3508 438.513 55.3508Z" fill="#231F20"/>
<path d="M429.754 55.3508C429.98 55.3508 430.163 55.1677 430.163 54.9419C430.163 54.716 429.98 54.5329 429.754 54.5329C429.529 54.5329 429.345 54.716 429.345 54.9419C429.345 55.1677 429.529 55.3508 429.754 55.3508Z" fill="#231F20"/>
<path d="M452.734 140.273C452.573 140.288 452.424 140.358 452.312 140.474C451.631 141.18 449.174 143.788 449.019 144.867C448.84 146.121 444.585 149.57 446.69 150.332C447.617 150.667 449.915 147.286 450.901 147.465C451.824 147.633 450.905 153.627 449.842 155.926C449.696 156.242 449.822 156.631 450.132 156.789C451.56 157.511 452.782 153.557 452.782 153.557L452.115 155.616C451.919 156.222 452.599 156.744 453.127 156.387C453.803 155.929 454.554 155.044 454.977 153.333C454.977 153.333 455.016 154.856 455.738 154.766C457.33 154.568 458.089 145.982 458.15 144.422C458.156 144.28 457.487 140.662 457.408 140.544L455.602 140.364C455.465 140.158 455.226 140.044 454.98 140.067L452.734 140.273Z" fill="#EEB489"/>
<path d="M407.46 140.273C407.621 140.288 407.77 140.358 407.882 140.474C408.563 141.18 411.02 143.788 411.174 144.867C411.354 146.121 415.609 149.57 413.504 150.332C412.577 150.667 410.279 147.286 409.293 147.465C408.369 147.633 409.289 153.627 410.352 155.926C410.498 156.242 410.372 156.631 410.062 156.789C408.634 157.511 407.412 153.557 407.412 153.557L408.079 155.616C408.275 156.222 407.595 156.744 407.067 156.387C406.391 155.929 405.64 155.044 405.217 153.333C405.217 153.333 405.178 154.856 404.456 154.766C402.864 154.568 402.105 145.982 402.044 144.422C402.038 144.28 402.707 140.662 402.786 140.544L404.592 140.364C404.729 140.158 404.968 140.044 405.214 140.067L407.46 140.273Z" fill="#EEB489"/>
<ellipse cx="420.706" cy="53.8099" rx="2.75747" ry="3.46493" transform="rotate(-15.2666 420.706 53.8099)" fill="#EEB489"/>
<path d="M535.507 234.547L540.558 237.156L545.644 229.063L539.924 225.47L535.507 234.547Z" fill="#FFC09E"/>
<path d="M544.307 237.306L535.908 263.797C534.756 265.995 529.979 263.452 529.852 260.969L530.771 235.624C530.771 235.624 533.237 233.088 535.184 232.663C535.576 232.576 535.881 233.166 536.202 233.657C536.56 234.211 539.673 231.77 544.307 237.306Z" fill="#FFD84D"/>
<path d="M595.773 127.766C595.632 126.644 594.678 125.814 593.548 125.814L565.988 125.814C565.356 125.814 564.757 126.074 564.383 126.583C562.29 129.425 556.03 139.969 564.616 155.292C564.856 155.72 564.965 156.222 564.907 156.709L561.05 189.032C561.007 189.391 560.878 189.736 560.674 190.035L537.588 223.906C536.677 225.242 537.426 227.074 539.012 227.39L547.709 229.121C548.534 229.286 549.383 228.977 549.91 228.32L576.657 194.971C576.929 194.631 577.097 194.22 577.141 193.787L580.253 163.05C580.308 162.5 580.56 161.98 580.994 161.638C588.391 155.803 598.156 163.234 598.107 155.958C598.056 146.878 596.411 132.876 595.773 127.766Z" fill="#8A7E72"/>
<path d="M580.572 254.333L586.788 254.108L590.168 245.169L583.851 242.776L580.572 254.333Z" fill="#FFC09E"/>
<path d="M590.56 253.3L593.162 280.972C592.96 283.447 587.569 282.963 586.482 280.732L577.445 257.034C577.445 257.034 578.727 253.737 580.349 252.586C580.677 252.354 581.184 252.777 581.676 253.104C582.224 253.471 584.134 250.007 590.56 253.3Z" fill="#FFD84D"/>
<path d="M590.836 247.294L584.155 245.898C582.618 245.576 581.462 244.302 581.29 242.738L594.011 194.438L578.495 166.261C578.209 163.641 577.57 152.857 580.077 153.678L596.495 148.37C597.909 148.832 610.687 193.233 610.687 193.233C610.687 193.233 594.208 246.342 592.944 246.967C592.318 247.285 591.584 247.412 590.836 247.294Z" fill="#8A7E72"/>
<path d="M609.536 194.326C607.931 192.871 606.104 192.726 605.375 193.46C604.686 194.158 604.935 195.704 605.665 196.556C606.929 198.029 610.066 197.92 611.698 196.175C613.18 194.589 613.058 192.05 612.011 190.518C610.361 188.098 606.499 188.311 604.142 189.467C601.708 190.663 599.342 193.632 600.13 196.502C601.164 200.264 606.712 200.567 607.269 200.59C607.709 200.608 612.237 200.717 615.016 196.959C617.269 193.918 616.738 190.546 616.634 189.943" stroke="black" stroke-width="0.530153" stroke-miterlimit="10"/>
<path d="M573.178 194.503C574.673 192.858 576.532 192.527 577.348 193.207C578.123 193.851 578.019 195.46 577.352 196.402C576.201 198.034 572.987 198.229 571.147 196.606C569.474 195.133 569.352 192.522 570.272 190.854C571.723 188.216 575.693 188.053 578.213 189.005C580.82 189.989 583.53 192.794 583.005 195.804C582.316 199.752 576.672 200.609 576.106 200.686C575.657 200.749 571.038 201.302 567.824 197.735C565.223 194.848 565.431 191.348 565.481 190.718" stroke="black" stroke-width="0.530153" stroke-miterlimit="10"/>
<path d="M590.018 42.1917C590.018 42.1917 595.902 83.7905 593.471 84.6022C591.041 85.4183 577.685 81.3773 577.685 81.3773L568.181 58.3074L578.093 40.6517L590.018 42.1917Z" fill="black"/>
<path d="M578.638 76.1461L580.582 72.6361C580.582 72.6361 569.402 70.2448 567.568 71.8375C565.734 73.4346 568.125 76.1461 568.125 76.1461H578.638Z" fill="#FFD84D"/>
<path d="M530.947 98.6775L562.638 91.5608C564.894 90.6789 566.012 88.1341 565.13 85.8789C564.249 83.6236 561.423 79.2009 559.168 80.0829L533.198 88.3798L512.172 69.478C510.487 67.7362 508.767 68.4952 507.026 70.18C505.284 71.8649 507.047 73.5409 508.732 75.2828L530.947 98.6775Z" fill="#FFC09E"/>
<path d="M574.914 72.9566C574.352 72.9873 561.523 77.9365 557.763 82.4996C554.003 87.0627 559.821 96.9129 561.418 105.662C563.015 114.411 561.819 124.745 565.12 126.36C568.421 127.975 583.804 130.255 592.404 126.303C596.48 117.41 594.342 107.974 595.163 105.341C599.177 92.4639 600.187 77.9278 600.187 77.9278L581.188 73.8834L574.914 72.9566Z" fill="#FFD84D"/>
<path d="M582.141 87.2867C581.519 87.2867 581.014 86.7818 581.014 86.159C581.014 85.5363 581.519 85.0314 582.141 85.0314C582.764 85.0314 583.269 85.5363 583.269 86.159C583.269 86.7818 582.764 87.2867 582.141 87.2867Z" fill="#121212"/>
<path d="M581.26 95.5133C580.637 95.5133 580.133 95.0085 580.133 94.3857C580.133 93.7629 580.637 93.2581 581.26 93.2581C581.883 93.2581 582.388 93.7629 582.388 94.3857C582.388 95.0085 581.883 95.5133 581.26 95.5133Z" fill="#121212"/>
<path d="M590.985 46.6314C590.985 46.6314 591.384 37.4042 589.471 34.1355C587.558 30.8667 574.29 30.1603 570.833 33.802C570.833 33.802 565.668 33.8064 562.536 40.9714C559.631 47.623 558.819 64.502 573.083 64.6249L590.985 46.6314Z" fill="black"/>
<path d="M580.205 68.5335L578.314 71.3196L576.155 72.0655L572.228 71.8988V66.932L580.205 68.5335Z" fill="black"/>
<path d="M577.032 65.8009C577.032 65.8009 580.231 67.9815 583.447 66.3142C585.092 65.4587 587.615 61.2861 588.742 56.3851C590.278 49.7248 589.015 44.4903 588.001 44.034C586.382 43.3057 576.062 39.1463 571.508 47.316C566.958 55.4857 568.432 56.135 568.432 56.135C568.432 56.135 567.283 63.9055 568.946 63.0762C568.946 63.0762 569.393 67.2532 570.025 68.9468C570.433 70.0349 570.354 76.9015 573.983 77.3754C576.023 77.6386 577.883 77.937 578.502 75.7256C579.243 73.0711 578.695 69.5435 578.695 69.5435L577.032 65.8009Z" fill="#FFC09E"/>
<path d="M583.189 50.1812C583.307 53.4017 584.838 57.1487 584.43 57.5129C583.724 58.1491 581.868 58.0131 581.714 57.9341" stroke="black" stroke-width="0.394779" stroke-miterlimit="10" stroke-linecap="round"/>
<path d="M575.817 50.6329C577.862 49.2683 579.011 49.8431 579.011 49.8431" stroke="black" stroke-width="0.623616" stroke-miterlimit="10" stroke-linecap="round"/>
<path d="M588.937 50.0891C586.844 49.6109 585.997 49.9136 585.997 49.9136" stroke="black" stroke-width="0.623616" stroke-miterlimit="10" stroke-linecap="round"/>
<path d="M587.301 52.599C587.345 52.9675 585.41 53.2001 585.366 52.8315C585.322 52.4586 585.717 52.1032 586.257 52.0417C586.787 51.9759 587.257 52.226 587.301 52.599Z" fill="black"/>
<path d="M578.951 52.7827C578.995 53.1513 577.06 53.3838 577.016 53.0153C576.972 52.6423 577.367 52.2869 577.906 52.2255C578.437 52.1597 578.907 52.4098 578.951 52.7827Z" fill="black"/>
<path d="M582.641 63.6864C581.877 63.7522 580.416 61.1943 580.342 61.1109L584.571 60.9968C584.128 62.5281 583.202 63.6338 582.641 63.6864Z" fill="white"/>
<path d="M644.91 28.6067C646.718 24.6798 647.012 15.58 644.757 14.0663C643.41 13.6933 642.664 19.2041 642.664 19.2041C642.664 19.2041 643.563 12.0041 641.808 11.8944C640.053 11.7847 639.391 18.8882 639.391 18.8882C639.391 18.8882 639.838 11.5083 638.224 11.381C636.609 11.2538 634.766 23.5391 634.766 23.5391C634.766 23.5391 632.006 19.9807 631.098 20.3274C628.584 21.2882 631.467 25.7592 631.796 27.9179C632.283 31.1252 632.129 32.7706 632.375 34.9556C632.783 38.5973 638.934 36.8642 641.826 33.7402C642.576 32.9285 644.45 29.6115 644.91 28.6067Z" fill="#FFC09E"/>
<path d="M501.515 71.6389C501.413 71.4506 491.426 61.9647 492.605 58.9462C493.482 57.8862 497.189 61.9163 497.189 61.9163C497.189 61.9163 492.405 56.6056 493.761 55.5242C495.117 54.4427 499.648 59.8125 499.648 59.8125C499.648 59.8125 495.133 54.1091 496.366 53.0975C497.598 52.086 506.002 60.9693 506.002 60.9693C506.002 60.9693 506.223 56.5411 507.159 56.3097C509.731 55.6694 511.108 62.3467 511.991 64.3052C512.265 64.9186 515.602 72.2904 514.208 73.3019C512.723 74.378 511.625 74.0548 509.935 74.9587C508.122 75.9219 501.515 71.6389 501.515 71.6389Z" fill="#FFC09E"/>
<path d="M605.399 86.3126C605.5 86.2687 605.6 86.2204 605.701 86.1722L629.114 74.0492L643.031 29.3396C643.751 27.0274 642.461 24.5659 640.144 23.8464C637.832 23.1268 635.37 24.4167 634.651 26.7334L621.826 67.9417L601.669 78.3798C599.519 79.4942 598.677 82.1399 599.791 84.2943C600.849 86.3433 603.31 87.2032 605.399 86.3126Z" fill="#FFC09E"/>
<path d="M582.411 75.5647C582.411 75.5647 601.108 76.1108 604.723 74.7594C609.607 72.9342 613.858 72.0611 613.858 72.0611L612.064 90.6074L595.773 91.5639L592.561 83.0564L582.411 75.5647Z" fill="#FFD84D"/>
<path d="M570.795 73.7165C570.795 73.7165 563.665 75.5881 559.677 76.5944C553.613 78.1246 547.308 83.1323 547.308 83.1323L551.863 99.7612L563.455 95.5184L570.795 73.7165Z" fill="#FFD84D"/>
<path d="M581.743 71.2764L578.312 71.3203L575.543 79.5514L581.879 76.1466L581.743 71.2764Z" fill="#FFD84D"/>
<path d="M571.421 71.2764L574.856 71.3203L577.62 79.5514L571.289 76.1466L571.421 71.2764Z" fill="#FFD84D"/>
<path d="M562.004 71.1235C562.105 72.1633 561.412 85.0278 562.456 85.0804C564.97 85.1989 570.279 83.0007 572.771 81.3071C574.855 79.8899 574.013 58.4477 573.776 55.4027C573.543 52.3709 575.728 45.8597 579.844 46.2809C583.959 46.7021 594.139 48.4484 595.503 44.4469C598.039 37.0143 587.513 33.9913 587.513 33.9913C587.513 33.9913 576.755 35.1013 575.022 35.5401C573.815 35.8472 568.067 39.8706 564.68 42.2926C563.281 43.293 562.859 47.1935 560.881 50.8791L562.004 71.1235Z" fill="black"/>
</g>
<defs>
<clipPath id="clip0">
<rect width="660" height="264" fill="white" transform="translate(0.499878)"/>
</clipPath>
</defs>
</svg>
