<svg xmlns="http://www.w3.org/2000/svg" xmlns:xlink="http://www.w3.org/1999/xlink" viewBox="0 0 650 650"><defs><style>.cls-1{fill:url(#Безымянный_градиент_263);}.cls-2{fill:url(#Безымянный_градиент_170);}.cls-3{fill:url(#Безымянный_градиент_170-2);}.cls-4{fill:#fff;}.cls-5{fill:url(#Безымянный_градиент_170-3);}.cls-6{fill:url(#Безымянный_градиент_170-4);}.cls-21,.cls-7,.cls-9{fill:none;stroke-miterlimit:10;}.cls-7{stroke:#f0f2f5;stroke-width:7.61px;}.cls-8{fill:#f0f2f5;}.cls-9{stroke:#fff;stroke-width:2.86px;}.cls-10{fill:url(#Безымянный_градиент_123);}.cls-11{fill:url(#Безымянный_градиент_123-2);}.cls-12{fill:#201f4f;}.cls-13{fill:url(#Безымянный_градиент_123-3);}.cls-14{fill:url(#Безымянный_градиент_123-4);}.cls-15{fill:#1f1844;}.cls-16{fill:url(#Безымянный_градиент_42);}.cls-17{fill:url(#Безымянный_градиент_123-5);}.cls-18{fill:url(#Безымянный_градиент_139);}.cls-19{fill:#361f22;}.cls-20{fill:url(#Безымянный_градиент_42-2);}.cls-21{stroke-width:1.9px;stroke:url(#Безымянный_градиент_42-3);}.cls-22{fill:url(#Безымянный_градиент_54);}.cls-23{fill:url(#Безымянный_градиент_42-4);}.cls-24{fill:url(#Безымянный_градиент_42-5);}.cls-25{fill:url(#Безымянный_градиент_42-6);}.cls-26{fill:url(#Безымянный_градиент_42-7);}</style><linearGradient id="Безымянный_градиент_263" x1="3834.76" y1="321.18" x2="4467.34" y2="321.18" gradientTransform="matrix(-1, 0, 0, 1, 4478.16, 0)" gradientUnits="userSpaceOnUse"><stop offset="0" stop-color="#f0f2f5"/><stop offset="0.99" stop-color="#f5f7f8"/></linearGradient><linearGradient id="Безымянный_градиент_170" x1="306.61" y1="519.2" x2="306.61" y2="427.83" gradientUnits="userSpaceOnUse"><stop offset="0.01" stop-color="#bbbfd9"/><stop offset="1" stop-color="#d6dbf8"/></linearGradient><linearGradient id="Безымянный_градиент_170-2" x1="22.55" y1="258.51" x2="590.67" y2="258.51" xlink:href="#Безымянный_градиент_170"/><linearGradient id="Безымянный_градиент_170-3" x1="22.55" y1="427.73" x2="590.67" y2="427.73" xlink:href="#Безымянный_градиент_170"/><linearGradient id="Безымянный_градиент_170-4" x1="306.61" y1="556.62" x2="306.61" y2="513.08" xlink:href="#Безымянный_градиент_170"/><linearGradient id="Безымянный_градиент_123" x1="71.96" y1="335.01" x2="91.31" y2="335.01" gradientUnits="userSpaceOnUse"><stop offset="0" stop-color="#753200"/><stop offset="1" stop-color="#a04400"/></linearGradient><linearGradient id="Безымянный_градиент_123-2" x1="442.86" y1="1766.65" x2="469.47" y2="1766.65" gradientTransform="matrix(0.68, 0.74, -0.74, 0.68, 1254.23, -1263.91)" xlink:href="#Безымянный_градиент_123"/><linearGradient id="Безымянный_градиент_123-3" x1="116.95" y1="570.84" x2="133.03" y2="570.84" xlink:href="#Безымянный_градиент_123"/><linearGradient id="Безымянный_градиент_123-4" x1="86.72" y1="563.5" x2="103.16" y2="563.5" xlink:href="#Безымянный_градиент_123"/><linearGradient id="Безымянный_градиент_42" x1="458.93" y1="186.73" x2="503.29" y2="186.73" gradientUnits="userSpaceOnUse"><stop offset="0" stop-color="#67637e"/><stop offset="0.23" stop-color="#544f6f"/><stop offset="0.74" stop-color="#2e2750"/><stop offset="1" stop-color="#1f1844"/></linearGradient><linearGradient id="Безымянный_градиент_123-5" x1="97.51" y1="204.71" x2="151.5" y2="204.71" xlink:href="#Безымянный_градиент_123"/><linearGradient id="Безымянный_градиент_139" x1="69.29" y1="180.98" x2="153.98" y2="180.98" gradientUnits="userSpaceOnUse"><stop offset="0" stop-color="#201f4f"/><stop offset="0.26" stop-color="#27275a"/><stop offset="0.72" stop-color="#393c76"/><stop offset="1" stop-color="#464b8b"/></linearGradient><linearGradient id="Безымянный_градиент_42-2" x1="454.59" y1="326.66" x2="508.36" y2="326.66" xlink:href="#Безымянный_градиент_42"/><linearGradient id="Безымянный_градиент_42-3" x1="464.48" y1="296.24" x2="499.48" y2="296.24" xlink:href="#Безымянный_градиент_42"/><linearGradient id="Безымянный_градиент_54" x1="40.41" y1="296.46" x2="256.5" y2="296.46" gradientUnits="userSpaceOnUse"><stop offset="0.07" stop-color="#361f22"/><stop offset="1" stop-color="#593a33"/></linearGradient><linearGradient id="Безымянный_градиент_42-4" x1="94.75" y1="449.49" x2="118.45" y2="449.49" xlink:href="#Безымянный_градиент_42"/><linearGradient id="Безымянный_градиент_42-5" x1="108.35" y1="527.9" x2="133.99" y2="527.9" xlink:href="#Безымянный_градиент_42"/><linearGradient id="Безымянный_градиент_42-6" x1="275.75" y1="186.59" x2="331.07" y2="186.59" xlink:href="#Безымянный_градиент_42"/><linearGradient id="Безымянный_градиент_42-7" x1="279.29" y1="310.61" x2="327.53" y2="310.61" xlink:href="#Безымянный_градиент_42"/></defs><title>1</title><g id="Слой_4" data-name="Слой 4"><path class="cls-1" d="M32.59,341.55c56-107,190.57-281.22,398.57-281.22,272.21,0,236.17,180.22,146.53,273.94C503.75,411.59,631.76,460,509.48,530.16c-123.77,71-388.27,64.3-453.38,9.1S8.41,387.8,32.59,341.55Z"/><rect class="cls-2" x="218.33" y="450.67" width="176.55" height="73.29"/><rect class="cls-3" x="22.55" y="111.18" width="568.13" height="294.65" rx="12.78" ry="12.78"/><rect class="cls-4" x="40.41" y="130.59" width="532.4" height="255.83" rx="7.25" ry="7.25"/><path class="cls-5" d="M22.55,386.42H590.67a0,0,0,0,1,0,0V430A39.08,39.08,0,0,1,551.6,469h-490A39.08,39.08,0,0,1,22.55,430V386.42A0,0,0,0,1,22.55,386.42Z"/><circle class="cls-4" cx="306.61" cy="427.73" r="16.5"/><path class="cls-6" d="M218.33,524H394.89a34.93,34.93,0,0,1,34.93,34.93v0a0,0,0,0,1,0,0H183.41a0,0,0,0,1,0,0v0A34.93,34.93,0,0,1,218.33,524Z"/><path class="cls-7" d="M81,145.83h97.26a10,10,0,0,1,10,10v87.39a6.83,6.83,0,0,1-6.83,6.83H77.88a6.83,6.83,0,0,1-6.83-6.83V155.83A10,10,0,0,1,81,145.83Z"/><rect class="cls-8" x="71.05" y="224.24" width="117.25" height="25.81"/><rect class="cls-4" x="73.53" y="230.68" width="24.98" height="14.04" rx="2.1" ry="2.1"/><line class="cls-9" x1="108.51" y1="232.58" x2="185.37" y2="232.58"/><line class="cls-9" x1="108.51" y1="242.58" x2="185.37" y2="242.58"/><path class="cls-7" d="M256.83,145.83h97.26a10,10,0,0,1,10,10v87.39a6.83,6.83,0,0,1-6.83,6.83H253.67a6.83,6.83,0,0,1-6.83-6.83V155.83A10,10,0,0,1,256.83,145.83Z"/><rect class="cls-8" x="246.84" y="224.24" width="117.25" height="25.81"/><rect class="cls-4" x="249.32" y="230.68" width="24.98" height="14.04" rx="2.1" ry="2.1"/><line class="cls-9" x1="284.3" y1="232.58" x2="361.15" y2="232.58"/><line class="cls-9" x1="284.3" y1="242.58" x2="361.15" y2="242.58"/><path class="cls-7" d="M432.62,145.83h97.26a10,10,0,0,1,10,10v87.39A6.83,6.83,0,0,1,533,250H429.45a6.83,6.83,0,0,1-6.83-6.83V155.83A10,10,0,0,1,432.62,145.83Z"/><rect class="cls-8" x="422.62" y="224.24" width="117.25" height="25.81"/><rect class="cls-4" x="425.1" y="230.68" width="24.98" height="14.04" rx="2.1" ry="2.1"/><line class="cls-9" x1="460.08" y1="232.58" x2="536.94" y2="232.58"/><line class="cls-9" x1="460.08" y1="242.58" x2="536.94" y2="242.58"/><path class="cls-7" d="M81,267.94h97.26a10,10,0,0,1,10,10v87.39a6.83,6.83,0,0,1-6.83,6.83H77.88a6.83,6.83,0,0,1-6.83-6.83V277.94A10,10,0,0,1,81,267.94Z"/><rect class="cls-8" x="71.05" y="346.35" width="117.25" height="25.81"/><rect class="cls-4" x="73.53" y="352.79" width="24.98" height="14.04" rx="2.1" ry="2.1"/><line class="cls-9" x1="108.51" y1="354.69" x2="185.37" y2="354.69"/><line class="cls-9" x1="108.51" y1="364.69" x2="185.37" y2="364.69"/><path class="cls-7" d="M256.83,267.94h97.26a10,10,0,0,1,10,10v87.39a6.83,6.83,0,0,1-6.83,6.83H253.67a6.83,6.83,0,0,1-6.83-6.83V277.94A10,10,0,0,1,256.83,267.94Z"/><rect class="cls-8" x="246.84" y="346.35" width="117.25" height="25.81"/><rect class="cls-4" x="249.32" y="352.79" width="24.98" height="14.04" rx="2.1" ry="2.1"/><line class="cls-9" x1="284.3" y1="354.69" x2="361.15" y2="354.69"/><line class="cls-9" x1="284.3" y1="364.69" x2="361.15" y2="364.69"/><path class="cls-7" d="M432.62,267.94h97.26a10,10,0,0,1,10,10v87.39a6.83,6.83,0,0,1-6.83,6.83H429.45a6.83,6.83,0,0,1-6.83-6.83V277.94A10,10,0,0,1,432.62,267.94Z"/><rect class="cls-8" x="422.62" y="346.35" width="117.25" height="25.81"/><rect class="cls-4" x="425.1" y="352.79" width="24.98" height="14.04" rx="2.1" ry="2.1"/><line class="cls-9" x1="460.08" y1="354.69" x2="536.94" y2="354.69"/><line class="cls-9" x1="460.08" y1="364.69" x2="536.94" y2="364.69"/><path class="cls-10" d="M91.31,330.32l-5.48,14.9A122.65,122.65,0,0,1,72,340.49l13.1-15.69Z"/><path class="cls-11" d="M265.67,277c-3.37,1.31-17.09,15.58-26.43,19.38l-5.59-17.52c7.08-.85,17.54-8.85,20.26-11,3.47-2.68,4.21-5,6.21-8.31s4.49-12.26,6.63-14.91,4.67-2.94,5.27-1.57-3.34,8.72-1.44,9.69,6.57-3.55,7.37-4.34,3.07-9.66,7.47-9a1.42,1.42,0,0,1,1,2c-1.26,2.65-2.16,8.53-2.16,8.53s1-.18,1.36,2-.1,3.66.57,6.6-.69,4-3.2,7S270.16,275.29,265.67,277Z"/><path class="cls-12" d="M153.73,608.93l-.05,0c-1.58-.88-12.52-6.91-17.15-10.38s-11-3.4-14.41-.85a5.92,5.92,0,0,0-.93.85c-1.58-6.88-.66-14.77.23-19.62l12.3-3.42a125.81,125.81,0,0,0,5.19,14C142.52,597.65,152.47,607.68,153.73,608.93Z"/><path class="cls-12" d="M153.67,609c-10.37,6.84-20.43-.82-20.43-.82l.95,4.2h-7.87s-.77-2-1.4-3.29c-1.58-3.16-3.37-7.39-3.77-10.6,3.91-4.06,10.84-3.27,15.37.12S152.09,608.09,153.67,609Z"/><path class="cls-13" d="M121.76,578.87,133,575.73s-.07-5-1-12.91l-15.1,4.68C120,574.5,121.76,578.87,121.76,578.87Z"/><path class="cls-14" d="M87.44,568.13h0c0,.89-.07,1.37-.07,1.37l9.95,3.31a59.48,59.48,0,0,0,5.85-11.88l-16.43-6.76C86.61,558.93,87.67,563.78,87.44,568.13Z"/><path class="cls-15" d="M161.91,345.22l-46.82,7.22s-19.9.09-31.58-4.78C78.47,358.73,74,367,74,388.21c0,17.63,10.78,80.82,20.78,102.1-7.29,18.68-8.49,42.41-9,63.49l18.08,7.44c1.23-3.28,3.2-11.71,4.5-17.32l.25.7c3,8.44,5.14,17,7.76,23.06l16.26-4.85c1.37-14.71,3.91-34.21,1.36-52.51h0c-.05-1.92,0-3.81,0-5.7,1.09-2.23,32.73-42.38,39.64-102.44C176.75,375.28,166.31,357,161.91,345.22Z"/><path class="cls-16" d="M498.39,150.26a58.28,58.28,0,0,1-34.56,0c-1.25,2.92-4.9,12.14-4.9,20.75,0,11.85,3.82,45,3.82,45s7.87,7,18.36,7.16C491.6,223,499.46,216,499.46,216s3.82-33.16,3.82-45C503.29,162.4,499.64,153.19,498.39,150.26Z"/><path class="cls-17" d="M149.15,185.29c6.69,14.67-2.59,28.69-6.53,31.1-6,3.69-8.23,3.3-11.16,8.58-1.92,3.46-2.63,7.94-1.27,13.3a37.45,37.45,0,0,0-5.49-.45,113.78,113.78,0,0,0-24.55,2.26l-2.64-16.85c1.08.18,3.73-48.38,25.14-53.14S147.18,185.06,149.15,185.29Z"/><path class="cls-18" d="M145.27,186.67c-11.84,9.28,2.12,35,2.12,35s-23.15,1.77-28.49,2c-25.78,1.31-31.8.25-42.76-3.82-7.76-2.88-8.18-28-4.92-47.54S90,137.52,108.75,137.71c15.63.16,33,4.51,40.15,13.84C156.44,161.42,155.88,178.36,145.27,186.67Z"/><path class="cls-19" d="M100.29,230h29.09a5,5,0,0,1,5,5v11.15a0,0,0,0,1,0,0H95.26a0,0,0,0,1,0,0V235.06A5,5,0,0,1,100.29,230Z"/><rect class="cls-20" x="454.59" y="312.38" width="53.78" height="28.55" rx="4.4" ry="4.4"/><path class="cls-21" d="M465.53,312.38S463.15,281,481.47,281s17,31.41,17,31.41"/><path class="cls-12" d="M118.68,611.68s-3.38.31-9,.46h0l-1.8,0c-6.74.12-8.35-6.86-11-14s-13.32-13-18.82-9.12c.16-.88.32-1.6.45-2.14l.05-.22c.15-.58.25-.9.25-.9,1.94-6.51,5.29-14.44,7.63-18.16,0,.89,12,5.5,12,5.5a49.06,49.06,0,0,0,3.6,13.68c1.87,4.74,9.6,20.83,13.23,21S118.68,611.68,118.68,611.68Z"/><path class="cls-12" d="M109.62,612.14c-4,.57-13.22-.17-14.67-.58-1.76-.49-1.48-6.74-4-7.11s-2.12,7.11-2.12,7.11H77.2a77.8,77.8,0,0,0,0-11.47,48.25,48.25,0,0,1,.77-11c5.5-3.85,16.2,2,18.82,9.12s4.24,14.09,11,14Z"/><path class="cls-22" d="M256.5,293.33S210.2,313,198.56,317.61s-38.31-21.2-38.31-21.2l-7.16,30.24s8,10.25,12.64,21c-31.89,14.32-84.08.78-84.08.78L92.91,324.8,81.64,296.42,74.3,311.3l12,12-1.21,1.52-14,19.15s-30.31-20.4-30.64-29.35S53.55,267.77,65,252.42c4.26-5.72,23.08-11.58,36.7-13.15a130.12,130.12,0,0,1,26.12.2c44,4.85,71.46,46,71.46,46l45.66-15.94Z"/><path class="cls-23" d="M118.45,408.69l-7.77,58.6s-9.52,7-15.86,23c-1.17-12.9,12.54-24.86,12.54-24.86Z"/><path class="cls-24" d="M108.35,543.91S126.9,514.83,134,504.64c-2,16.5-23.19,46.52-23.19,46.52Z"/><polygon class="cls-25" points="318.08 172.82 328.08 150.92 313.56 150.92 303.41 172.82 293.26 150.92 278.74 150.92 288.74 172.82 275.75 222.26 331.07 222.26 318.08 172.82"/><path class="cls-26" d="M318.09,304.34l6.44-21.62a5.5,5.5,0,0,0-5-7.79h-6l-2,4.4a8.94,8.94,0,0,1-16.22,0l-2-4.4h-4.85a6.21,6.21,0,0,0-5.65,8.79l6,20.61-9,29a10,10,0,0,0,9.51,12.89h28.33a10,10,0,0,0,9.51-12.89Z"/></g></svg>